<?xml version="1.0" standalone="no"?>
<!DOCTYPE svg PUBLIC "-//W3C//DTD SVG 20010904//EN"
 "http://www.w3.org/TR/2001/REC-SVG-20010904/DTD/svg10.dtd">
<svg version="1.0" xmlns="http://www.w3.org/2000/svg"
 width="558.000000pt" height="558.000000pt" viewBox="0 0 558.000000 558.000000"
 preserveAspectRatio="xMidYMid meet">
<metadata>
Created by potrace 1.11, written by Peter Selinger 2001-2013
</metadata>
<g transform="translate(0.000000,558.000000) scale(0.100000,-0.100000)"
fill="#000000" stroke="none">
<path d="M2690 5044 c-118 -24 -291 -98 -365 -156 -62 -50 -59 -49 -207 -52
-79 -2 -150 -5 -158 -8 -51 -15 -100 -32 -137 -49 -24 -10 -46 -19 -49 -19
-12 0 -130 -88 -172 -129 -23 -22 -63 -69 -88 -103 -41 -56 -95 -96 -129 -98
-17 0 -167 -80 -214 -114 -73 -52 -171 -158 -171 -185 0 -6 -4 -11 -9 -11 -5
0 -12 -12 -16 -27 -3 -16 -13 -41 -20 -58 -30 -64 -47 -173 -50 -319 l-4 -149
-33 -21 c-18 -11 -35 -23 -38 -26 -3 -3 -32 -23 -64 -45 -33 -22 -64 -44 -70
-50 -6 -5 -29 -23 -51 -40 -36 -26 -66 -52 -146 -126 -88 -82 -244 -288 -294
-389 -14 -30 -30 -62 -35 -71 -28 -55 -52 -181 -51 -274 0 -55 3 -109 5 -120
3 -11 12 -49 21 -84 16 -64 74 -191 99 -217 8 -8 23 -24 33 -37 41 -51 128
-107 218 -143 71 -27 249 -27 320 0 28 11 52 22 55 26 3 3 19 12 35 20 17 8
36 20 44 25 27 19 207 200 229 230 45 61 109 144 123 159 20 22 31 36 58 74
28 40 40 33 58 -36 6 -26 20 -78 31 -117 12 -38 37 -128 57 -200 58 -207 116
-395 135 -440 5 -11 20 -51 35 -90 60 -160 197 -427 242 -473 7 -7 13 -17 13
-21 0 -4 9 -19 20 -32 28 -34 32 -40 65 -83 100 -133 297 -297 421 -352 33
-14 68 -30 79 -35 24 -10 89 -26 165 -41 62 -11 249 -4 295 11 17 6 58 20 93
31 63 20 202 89 222 110 3 3 25 21 50 40 44 33 179 165 232 227 117 137 300
459 343 603 4 14 11 30 15 35 23 29 167 489 216 690 8 33 21 80 28 105 8 25
17 57 20 73 8 37 20 34 47 -10 13 -21 26 -40 29 -43 3 -3 19 -23 36 -45 16
-21 36 -47 44 -56 8 -8 33 -38 55 -65 80 -98 221 -232 280 -266 110 -63 149
-73 271 -73 61 0 122 5 135 11 164 75 245 147 308 277 120 244 106 496 -42
737 -12 19 -27 41 -34 48 -7 7 -13 19 -13 25 0 7 -12 26 -28 42 -15 17 -40 48
-56 70 -80 108 -249 258 -438 389 l-98 67 0 137 c0 207 -36 350 -115 461 -11
16 -115 120 -137 137 -42 33 -177 104 -285 150 -24 10 -43 23 -43 30 0 7 -3
14 -7 16 -5 2 -27 29 -51 61 -78 104 -239 217 -347 243 -16 4 -34 9 -40 13
-20 11 -42 13 -188 17 l-149 4 -43 35 c-23 19 -47 35 -54 35 -6 0 -11 4 -11 8
0 4 -16 14 -35 21 -19 7 -35 17 -35 22 0 5 -6 9 -12 9 -7 0 -26 7 -41 15 -68
35 -164 56 -272 60 -60 2 -121 1 -135 -1z m190 -432 c19 -5 44 -13 55 -17 38
-15 130 -121 179 -206 l50 -86 35 14 c34 13 49 20 134 57 157 70 291 44 377
-75 15 -21 47 -90 69 -151 l42 -113 112 0 c151 -1 196 -15 263 -81 40 -40 56
-66 68 -107 20 -69 20 -88 -1 -155 -33 -104 -127 -174 -258 -193 -121 -17
-117 -12 -130 -174 -4 -38 -10 -95 -15 -125 -5 -30 -12 -86 -15 -125 -3 -38
-10 -90 -15 -115 -6 -25 -16 -92 -25 -150 -37 -260 -117 -614 -180 -794 -15
-43 -28 -84 -30 -90 -1 -6 -5 -18 -8 -26 -3 -8 -18 -46 -32 -85 -14 -38 -29
-79 -34 -90 -5 -11 -21 -47 -36 -80 -48 -108 -153 -301 -180 -331 -5 -6 -17
-22 -25 -34 -50 -74 -137 -171 -200 -221 -56 -45 -108 -71 -184 -93 -140 -41
-303 13 -432 142 -147 146 -214 250 -343 534 -11 26 -21 50 -21 53 0 4 -6 21
-14 38 -30 71 -39 95 -61 162 -12 39 -32 104 -44 145 -13 41 -26 86 -31 100
-5 14 -21 75 -35 135 -14 61 -30 126 -35 145 -6 19 -17 71 -26 115 -9 44 -22
112 -30 150 -39 184 -58 285 -99 545 -9 52 -21 126 -28 165 l-12 69 -45 9
c-25 5 -49 13 -55 18 -5 5 -16 9 -25 9 -29 0 -135 57 -169 91 -74 75 -94 199
-47 295 54 111 153 154 346 149 l77 -2 18 41 c10 23 28 68 40 102 45 126 106
199 187 223 68 21 81 22 138 10 55 -11 69 -16 170 -62 105 -48 103 -48 154 32
26 39 46 75 46 80 0 5 3 11 8 13 4 2 20 20 35 41 71 94 192 132 317 99z
m-1680 -1417 c0 -33 -13 -72 -50 -149 -27 -58 -50 -110 -50 -115 0 -6 -4 -11
-10 -11 -5 0 -10 -5 -10 -12 0 -6 -27 -67 -60 -135 -33 -67 -60 -128 -60 -133
0 -6 -3 -10 -8 -10 -4 0 -18 -24 -32 -52 -29 -63 -212 -253 -253 -263 -49 -13
-90 2 -117 42 -53 77 -19 289 63 398 101 134 139 173 252 264 39 31 72 58 75
61 10 11 180 120 187 120 5 0 19 9 33 20 36 28 40 25 40 -25z m3334 -46 c147
-75 308 -209 389 -325 45 -66 100 -168 116 -217 28 -84 11 -201 -36 -244 -31
-30 -93 -31 -138 -3 -34 21 -104 98 -167 184 -21 28 -41 56 -45 61 -17 20 -90
152 -112 200 -12 28 -29 62 -37 77 -8 14 -14 31 -14 38 0 7 -7 26 -15 43 -13
28 -53 144 -75 219 l-8 26 40 -14 c22 -8 68 -28 102 -45z"/>
</g>
</svg>
