<svg xmlns="http://www.w3.org/2000/svg" viewBox="0 0 283.5 95.4">
  <title>Asset 1</title>
  <g>
    <g>
      <path d="M97.5,4.2c7.5-5.9,14.4-5.4,21.1,0,6.4-.8,11.7,1.5,15.1,7,9.2,3.6,11.6,7.5,11,17.4l3.3,2.3A33.3,33.3,0,0,1,158,41.8a13.8,13.8,0,0,1,1,12.1c-2.7,7.2-10.2,9.3-16.1,4.4a51.4,51.4,0,0,1-5.6-6.2c-.7-.8-1.2-1.6-2-2.8-1.2,4.3-2.2,8.2-3.4,12.1-2.2,6.8-4.9,13.4-9.7,18.8a25.9,25.9,0,0,1-5.2,4.6c-6.8,4.4-14.8,3.5-20.9-2.2S87.7,71.7,85.5,65.1c-1.6-4.5-2.7-9.1-4.1-13.7l-.6-2.1-1.9,2.4A61.5,61.5,0,0,1,74,57.6c-3,2.9-6.7,4.4-10.9,2.8s-6.4-5.5-7-10.1a13.8,13.8,0,0,1,2-8.7A34.9,34.9,0,0,1,68.3,30.7l3.1-2.1c-.5-9.9,2.1-14.2,10.9-17.3C85.8,5.8,90.9,3.4,97.5,4.2ZM86.5,30.8c.7,4.2,1.2,8.1,2,12,1.9,9.4,3.8,18.7,8.3,27.3a27,27,0,0,0,4.7,6.4c3.8,3.8,9,3.9,12.8.1a30.2,30.2,0,0,0,5.3-7.3c4.2-8,6.3-16.7,7.8-25.6.7-4.3,1.1-8.7,1.7-13.3l3-.4a5.3,5.3,0,0,0,4.4-5.5,5.2,5.2,0,0,0-5.1-4.8h-3.7c-.4-1-.7-1.6-.9-2.3-1.4-4.7-4.6-6.2-9.1-4.1l-2.8,1.2c-1.8-2.9-2.9-6.2-7.1-6.3s-5.3,3.5-7.2,6.2c-2.7-.8-5-2.9-8.1-1.8s-3.3,4.4-4.7,7H84.5c-2.8.2-4.8,2-5.1,4.4s.9,4.6,3.6,5.7C84,30.1,85.2,30.4,86.5,30.8ZM65.4,53c1.4.6,2.7-.9,3.3-1.5a15.4,15.4,0,0,0,2.7-3.1c1.9-3.7,3.7-7.5,5.5-11.3a7,7,0,0,0,.1-2C70.9,38.4,64.4,43.7,64,49,63.9,50.1,63.7,52.2,65.4,53Zm85.1-.6a4.9,4.9,0,0,0,.7-5.4,20.5,20.5,0,0,0-12.4-11.3,40.6,40.6,0,0,0,5,11.8,30.9,30.9,0,0,0,3,3.8C147.9,52.2,148.9,52.9,150.5,52.3Z" style="fill: #e2231a;fill-rule: evenodd"/>
      <g>
        <path d="M6.3,53.8H4V30.6H4a1.9,1.9,0,0,0-2-1.7,1.8,1.8,0,0,0-2,1.7V54.3H0c.2,1.9,1.5,2.9,3.6,2.9H6.3a1.8,1.8,0,0,0,1.9-1.7C8.2,54.8,7.7,53.9,6.3,53.8Z" style="fill: #e2231a"/>
        <path d="M14,28.9a1.9,1.9,0,0,0-2,1.6V55.9a2,2,0,0,0,2.1,1.5,1.8,1.8,0,0,0,2-1.8V30.5A1.9,1.9,0,0,0,14,28.9Z" style="fill: #e2231a"/>
        <path d="M28.9,43.7a1.7,1.7,0,1,0,0-3.5H26V32.4h2.7a1.8,1.8,0,1,0-.1-3.5H25.6c-2.1,0-3.4,1.1-3.6,2.9V54.3h0c.2,1.8,1.5,2.9,3.6,2.9h3.3a1.8,1.8,0,0,0,1.9-1.7c0-.8-.5-1.7-2-1.8H26V43.7Z" style="fill: #e2231a"/>
        <path d="M46,31.8c-.2-1.9-1.5-3-3.6-3H35.5V55.8a1.9,1.9,0,0,0,2,1.6,1.9,1.9,0,0,0,2-1.6V44.4H42V55.7h0a1.8,1.8,0,0,0,2,1.5,1.9,1.9,0,0,0,2-1.5V44a2.3,2.3,0,0,0-.5-1.4,1.8,1.8,0,0,0,.5-1.2Zm-6.4.6H42v8.5H39.6Z" style="fill: #e2231a"/>
        <g>
          <path d="M180.9,31.8c-.2-1.9-1.4-2.9-3.5-2.9h-7.1V57.3h7.1c2.1,0,3.4-1.1,3.5-3V43.1a2,2,0,0,0-.4-1.1,2.2,2.2,0,0,0,.4-1.2Zm-4,.6v7.9h-2.6V32.4h2.6Zm-2.6,11.4h2.6v10h-2.6Z" style="fill: #e2231a"/>
          <path d="M195,28.8a1.9,1.9,0,0,0-2,1.5V53.8h-2.4V30.6h0a1.9,1.9,0,0,0-2-1.7,1.9,1.9,0,0,0-2,1.6V54.3h0a3.3,3.3,0,0,0,3.6,2.9h3.3a3.3,3.3,0,0,0,3.6-2.9V30.3A1.9,1.9,0,0,0,195,28.8Z" style="fill: #e2231a"/>
          <path d="M206.4,32.4H208v2.4a1.8,1.8,0,0,0,2,1.7,1.9,1.9,0,0,0,2-1.7V32c0-.9-.3-3.1-3.6-3.1h-2.6a3.5,3.5,0,0,0-3.1,1.5,3.7,3.7,0,0,0-.5,1.4h0v8.9c.1.9.6,2.9,3.6,2.9H208V53.8h-1.8V51.5a1.8,1.8,0,0,0-2-1.7,1.8,1.8,0,0,0-2,1.7v2.9c0,.9.3,3,3.5,3h2.8a3.3,3.3,0,0,0,3-1.5,2.9,2.9,0,0,0,.5-1.6V43.2c-.2-1.9-1.5-2.9-3.6-2.9h-2.1V32.4Z" style="fill: #e2231a"/>
          <path d="M219.6,28.9a1.9,1.9,0,0,0-2,1.6V55.9a2,2,0,0,0,2.1,1.5,1.8,1.8,0,0,0,2-1.8V30.5A1.9,1.9,0,0,0,219.6,28.9Z" style="fill: #e2231a"/>
          <path d="M238.1,28.8a1.8,1.8,0,0,0-1.9,1.5V46.5l-1.6-15.4a2.5,2.5,0,0,0-2.6-2.2h-4.4V55.8a1.9,1.9,0,0,0,2,1.6,1.8,1.8,0,0,0,2-1.6V37.9L233.3,55a2.4,2.4,0,0,0,2.5,2.3h4.4V30.2A1.9,1.9,0,0,0,238.1,28.8Z" style="fill: #e2231a"/>
          <path d="M252.5,43.7a1.7,1.7,0,0,0,1.9-1.7c0-.8-.5-1.7-1.9-1.7h-2.8V32.4h2.7a1.8,1.8,0,1,0-.1-3.5h-3.1c-2.1,0-3.4,1.1-3.6,2.9V54.3h0c.2,1.8,1.5,2.9,3.6,2.9h3.2a1.8,1.8,0,0,0,1.9-1.7c0-.8-.5-1.7-2-1.8h-2.8V43.7Z" style="fill: #e2231a"/>
          <path d="M263.1,32.4h1.6v2.4a1.8,1.8,0,0,0,2,1.7,1.9,1.9,0,0,0,2-1.7V32c0-.9-.3-3.1-3.6-3.1h-2.6a3.5,3.5,0,0,0-3.1,1.5,3.7,3.7,0,0,0-.5,1.4h0v8.9c.1.9.6,2.9,3.7,2.9h2.2V53.8h-1.8V51.5a1.8,1.8,0,0,0-2-1.7,1.8,1.8,0,0,0-2,1.7v2.9c0,.9.3,3,3.5,3h2.8a3.3,3.3,0,0,0,3-1.5,3,3,0,0,0,.5-1.6V43.2c-.2-1.9-1.5-2.9-3.6-2.9H263V32.4Z" style="fill: #e2231a"/>
          <path d="M279.9,40.2h-2.1V32.4h1.7v2.4a1.8,1.8,0,0,0,2,1.7,1.9,1.9,0,0,0,2-1.7V32c0-.9-.3-3.1-3.6-3.1h-2.6a3.5,3.5,0,0,0-3.1,1.5,3.7,3.7,0,0,0-.5,1.4h0v8.9c.1.9.6,2.9,3.7,2.9h2.2V53.8h-1.8V51.5a1.8,1.8,0,0,0-2-1.7,1.8,1.8,0,0,0-2,1.7v2.9c0,.9.3,3,3.5,3h2.8a3.3,3.3,0,0,0,3-1.5,3,3,0,0,0,.5-1.6V43.2C283.3,41.3,282,40.2,279.9,40.2Z" style="fill: #e2231a"/>
        </g>
      </g>
      <path d="M113.1,37.9a1.9,1.9,0,0,0-2.1-1.7,1.9,1.9,0,0,0-2,1.8v6.8h-1.9V30.3a2.1,2.1,0,0,0-4.1-.1V45.3h0c.2,1.9,1.5,3,3.7,3H109v7.5a1.9,1.9,0,0,0,2,1.8,1.9,1.9,0,0,0,2.1-1.7V38Z" style="fill: #e2231a"/>
    </g>
    <g>
      <g>
        <path d="M174,68.7a.8.8,0,0,0-.8.6l-1.1,8v-8a.7.7,0,0,0-.8-.6.7.7,0,0,0-.8.7v9.7h1.6a1.5,1.5,0,0,0,1.6-1.3l1.2-8.4A.7.7,0,0,0,174,68.7Z" style="fill: #e2231a"/>
        <path d="M181.2,77.8V70c0-.5-.3-1.3-1.6-1.3h-.9a1.4,1.4,0,0,0-1.6,1.3v7.8a1.4,1.4,0,0,0,1.6,1.3h.9A1.4,1.4,0,0,0,181.2,77.8Zm-1.8-7.7c.2,0,.2.1.2.1v7.4c0,.1,0,.1-.2.1H179c-.2,0-.2,0-.2-.1V70.2c0-.1,0-.1.2-.1Z" style="fill: #e2231a"/>
        <path d="M188.2,77.8V70a1.3,1.3,0,0,0-1.6-1.3h-.9a1.4,1.4,0,0,0-1.6,1.3v7.8a1.4,1.4,0,0,0,1.6,1.3h.9A1.4,1.4,0,0,0,188.2,77.8Zm-1.8-7.7c.2,0,.2.1.2.1v7.4c0,.1,0,.1-.2.1h-.4c-.2,0-.2,0-.2-.1V70.2c0-.1,0-.1.2-.1Z" style="fill: #e2231a"/>
        <path d="M192.8,70.8c0-.4.1-.7.3-.7h.2v.8a.8.8,0,0,0,1.6,0V70c0-.4-.1-1.3-1.5-1.3h-.3l-.6.2-.6-.2a.7.7,0,0,0-.8.7v9a.7.7,0,0,0,.8.6.8.8,0,0,0,.8-.7Z" style="fill: #e2231a"/>
      </g>
      <g>
        <path d="M221.6,68.7h-4.7v9.7a.7.7,0,0,0,.8.7c.6,0,.8-.4.8-.7V70.1h.6c.2,0,.2,0,.2.1v8.2a.7.7,0,0,0,.8.7c.6,0,.8-.4.8-.7V70.2c0-.1,0-.1.2-.1h.4c.2,0,.2.1.2.1v8.2c0,.3.2.7.8.7s.8-.4.8-.7V70C223.1,69.6,223,68.7,221.6,68.7Z" style="fill: #e2231a"/>
        <path d="M229.4,74.2c.2,0,.5-.2.9-.5h.1V70c-.1-.5-.4-1.3-1.7-1.3h-.8c-1.3,0-1.5.8-1.5,1.3v7.8c0,.5.3,1.3,1.5,1.3h1.1c1.3,0,1.5-.9,1.5-1.3v-1a.8.8,0,0,0-1.6,0v.9h-.7c-.2,0-.2-.1-.2-.2V74.2Zm-.8-4.2c.2,0,.2.1.2.1v2.7H228V70.2c0-.1,0-.1.2-.1Z" style="fill: #e2231a"/>
        <path d="M235.5,70.2c.7-.1.7-.6.7-.7s-.1-.6-.8-.7h-.7v-.6a.7.7,0,0,0-.8-.7.7.7,0,0,0-.8.7v9.7a1.3,1.3,0,0,0,1.5,1.3h.8a.7.7,0,0,0,.7-.7c0-.3-.2-.6-.7-.7H235c-.2,0-.2,0-.2-.1V70.2Z" style="fill: #e2231a"/>
      </g>
      <g>
        <path d="M260.3,79.1h1.1a1.1,1.1,0,0,0,1.3-1V67.2c0-.3-.2-.7-.8-.7a.7.7,0,0,0-.8.7v1.5h-.8a1.5,1.5,0,0,0-1.7,1.2v7.8h0A1.5,1.5,0,0,0,260.3,79.1Zm.8-9v7.7h-.6c-.2,0-.2-.1-.2-.2V70.2c0-.1,0-.1.2-.1Z" style="fill: #e2231a"/>
        <path d="M269.8,77.8V70c0-.5-.3-1.3-1.6-1.3h-.9a1.4,1.4,0,0,0-1.6,1.3v7.8a1.4,1.4,0,0,0,1.6,1.3h.9A1.4,1.4,0,0,0,269.8,77.8Zm-1.8-7.7c.2,0,.2.1.2.1v7.4c0,.1,0,.1-.2.1h-.4c-.2,0-.2-.1-.2-.1V70.2c0-.1,0-.1.2-.1Z" style="fill: #e2231a"/>
        <path d="M276.8,77.8V70c0-.5-.3-1.3-1.6-1.3h-.9a1.4,1.4,0,0,0-1.6,1.3v7.8a1.4,1.4,0,0,0,1.6,1.3h.9A1.4,1.4,0,0,0,276.8,77.8ZM275,70.1c.2,0,.2.1.2.1v7.4c0,.1,0,.1-.2.1h-.4c-.2,0-.2-.1-.2-.1V70.2c0-.1,0-.1.2-.1Z" style="fill: #e2231a"/>
        <path d="M281.3,78.4V70.8c0-.4.1-.7.3-.7h.2v.8a.8.8,0,0,0,1.6,0V70c0-.4-.1-1.3-1.5-1.3h-.3l-.6.2-.6-.2a.7.7,0,0,0-.8.7v9a.7.7,0,0,0,.8.6A.8.8,0,0,0,281.3,78.4Z" style="fill: #e2231a"/>
      </g>
      <g>
        <path d="M173,94h-1c-.2,0-.2,0-.2-.1V83.4a.8.8,0,0,0-1.6,0V94.2a1.3,1.3,0,0,0,1.5,1.2h1.2c.6,0,.8-.4.8-.7S173.8,94.1,173,94Z" style="fill: #e2231a"/>
        <path d="M176.6,83.2h-.2c-.6,0-.8.3-.8.7v.4c0,.3.2.7.8.7h.2c.6,0,.8-.3.8-.7v-.4C177.3,83.5,177.1,83.2,176.6,83.2Z" style="fill: #e2231a"/>
        <path d="M176.5,85a.7.7,0,0,0-.8.7v9.1a.8.8,0,0,0,1.6,0V85.7A.7.7,0,0,0,176.5,85Z" style="fill: #e2231a"/>
        <path d="M183.3,90.5c.2,0,.5-.2.9-.5h.1V86.3c-.1-.5-.4-1.3-1.7-1.3h-.8c-1.3,0-1.5.8-1.5,1.3v7.8c0,.5.3,1.3,1.5,1.3h1.1c1.3,0,1.5-.9,1.5-1.3v-1a.8.8,0,0,0-1.6,0V94h-.7c-.2,0-.2-.1-.2-.2V90.5Zm-.8-4.2c.2,0,.2.1.2.1v2.7h-.8V86.5c0-.1,0-.1.2-.1Z" style="fill: #e2231a"/>
        <path d="M189.2,85H189l-.6.2-.6-.2a.7.7,0,0,0-.8.7v9a.7.7,0,0,0,.8.6.8.8,0,0,0,.8-.7V87c0-.4.1-.7.3-.7h.2v.8a.8.8,0,0,0,1.6,0v-.9C190.7,85.9,190.6,85,189.2,85Z" style="fill: #e2231a"/>
        <path d="M195,85h-.8a1.4,1.4,0,0,0-1.5,1.3v3a1.4,1.4,0,0,0,1.6,1.2h.6v3.3c0,.1,0,.1-.2.2h-.4v-.9a.7.7,0,0,0-.8-.7.7.7,0,0,0-.8.7v1c0,.4.1,1.3,1.5,1.3h.8a1.3,1.3,0,0,0,1.5-1.3V90.4c0-.5-.2-1.3-1.6-1.3h-.6V86.5h.6v.9a.7.7,0,0,0,.8.7.7.7,0,0,0,.8-.7v-1C196.5,85.9,196.3,85,195,85Z" style="fill: #e2231a"/>
        <path d="M202.4,90.5c.2,0,.5-.2.9-.5h.1V86.3c-.1-.5-.4-1.3-1.7-1.3h-.8c-1.3,0-1.5.8-1.5,1.3v7.8c0,.5.3,1.3,1.5,1.3h1.1c1.3,0,1.5-.9,1.5-1.3v-1a.8.8,0,0,0-1.6,0V94h-.7c-.2,0-.2-.1-.2-.2V90.5Zm-.8-4.2c.2,0,.2.1.2.1v2.7h-.8V86.5c0-.1,0-.1.2-.1Z" style="fill: #e2231a"/>
        <path d="M212.5,85h-.9a1.4,1.4,0,0,0-1.6,1.3v7.8a1.4,1.4,0,0,0,1.6,1.3h.9a1.4,1.4,0,0,0,1.6-1.3V86.3C214,85.8,213.7,85,212.5,85Zm-.3,1.4c.2,0,.2.1.2.1v7.4c0,.1,0,.1-.2.1h-.4c-.2,0-.2-.1-.2-.1V86.5c0-.1,0-.1.2-.1Z" style="fill: #e2231a"/>
        <path d="M219.5,85h-2.4v9.7a.7.7,0,0,0,.8.6c.7,0,.8-.5.8-.7V86.4h.5c.2,0,.2.1.2.2v8.2a.7.7,0,0,0,.8.6l.6-.2a.6.6,0,0,0,.2-.5V86.3C221,85.8,220.7,85,219.5,85Z" style="fill: #e2231a"/>
        <path d="M227.3,82.8a.7.7,0,0,0-.8.7V85h-.8a1.5,1.5,0,0,0-1.7,1.2v7.8h0a1.5,1.5,0,0,0,1.7,1.2h1.1a1.1,1.1,0,0,0,1.3-1V83.5C228.1,83.1,227.9,82.8,227.3,82.8Zm-.8,3.6V94h-.6c-.2,0-.2-.1-.2-.2V86.5c0-.1,0-.1.2-.1Z" style="fill: #e2231a"/>
        <path d="M234.3,90.5c.2,0,.5-.2.9-.5h.1V86.3c-.1-.5-.4-1.3-1.7-1.3h-.8c-1.3,0-1.5.8-1.5,1.3v7.8c0,.5.3,1.3,1.5,1.3h1.1c1.3,0,1.5-.9,1.5-1.3v-1a.8.8,0,0,0-1.6,0V94h-.7c-.2,0-.2-.1-.2-.2V90.5Zm-.8-4.2c.2,0,.2.1.2.1v2.7h-.8V86.5c0-.1,0-.1.2-.1Z" style="fill: #e2231a"/>
        <path d="M240.2,85h-.3l-.6.2-.6-.2a.7.7,0,0,0-.8.7v9a.7.7,0,0,0,.8.6.8.8,0,0,0,.8-.7V87c0-.4.1-.7.3-.7h.2v.8a.8.8,0,0,0,1.6,0v-.9C241.6,85.9,241.5,85,240.2,85Z" style="fill: #e2231a"/>
        <path d="M246.3,85h-2.4v9.7a.7.7,0,0,0,.8.6c.7,0,.8-.5.8-.7V86.4h.5c.2,0,.2.1.2.2v8.2a.7.7,0,0,0,.8.6l.6-.2a.6.6,0,0,0,.2-.5V86.3C247.8,85.8,247.6,85,246.3,85Z" style="fill: #e2231a"/>
        <path d="M253.9,90.5c.2,0,.5-.2.9-.5h.1V86.3c-.1-.5-.4-1.3-1.7-1.3h-.8c-1.3,0-1.5.8-1.5,1.3v7.8c0,.5.3,1.3,1.5,1.3h1.1c1.3,0,1.5-.9,1.5-1.3v-1a.8.8,0,0,0-1.6,0V94h-.7c-.2,0-.2-.1-.2-.2V90.5Zm-.8-4.2c.2,0,.2.1.2.1v2.7h-.8V86.5c0-.1,0-.1.2-.1Z" style="fill: #e2231a"/>
        <path d="M262.6,85h-4.7v9.7a.7.7,0,0,0,.8.7c.6,0,.8-.4.8-.7V86.4h.6c.2,0,.2,0,.2.1v8.2a.7.7,0,0,0,.8.7c.6,0,.8-.4.8-.7V86.5c0-.1,0-.1.2-.1h.4c.2,0,.2.1.2.1v8.2c0,.3.2.7.8.7s.8-.4.8-.7V86.3C264.1,85.9,263.9,85,262.6,85Z" style="fill: #e2231a"/>
        <path d="M270.3,90.5c.2,0,.5-.2.9-.5h.1V86.3c-.1-.5-.4-1.3-1.7-1.3h-.8c-1.3,0-1.5.8-1.5,1.3v7.8c0,.5.3,1.3,1.5,1.3h1.1c1.3,0,1.5-.9,1.5-1.3v-1a.8.8,0,0,0-1.6,0V94h-.7c-.2,0-.2-.1-.2-.2V90.5Zm-.8-4.2c.2,0,.2.1.2.1v2.7h-.8V86.5c0-.1,0-.1.2-.1Z" style="fill: #e2231a"/>
        <path d="M276.2,85H276l-.6.2-.6-.2a.7.7,0,0,0-.8.7v9a.7.7,0,0,0,.8.6.8.8,0,0,0,.8-.7V87c0-.4.1-.7.3-.7h.2v.8a.8.8,0,0,0,1.6,0v-.9C277.7,85.9,277.6,85,276.2,85Z" style="fill: #e2231a"/>
        <path d="M281.3,86.4h.5v.9a.7.7,0,0,0,.8.7.7.7,0,0,0,.8-.7v-1c0-.4-.1-1.3-1.5-1.3h-.8a1.4,1.4,0,0,0-1.5,1.3v3a1.4,1.4,0,0,0,1.6,1.2h.6v3.3c0,.1,0,.1-.2.2h-.4v-.9a.7.7,0,0,0-.8-.7.7.7,0,0,0-.8.7v1c0,.4.1,1.3,1.5,1.3h.8a1.3,1.3,0,0,0,1.5-1.3V90.4c0-.5-.2-1.3-1.6-1.3h-.6V86.5Z" style="fill: #e2231a"/>
      </g>
    </g>
  </g>
</svg>
