<svg xmlns="http://www.w3.org/2000/svg"><symbol id="cancel"><rect transform="rotate(45)" rx=".717" ry=".717" height="4.781" width="21.513" y="-2.39" x="1.971"/><rect fill="#FFF" ry=".717" rx=".717" transform="rotate(135)" height="4.781" width="21.513" y="-15.118" x="-10.757"/></symbol><symbol id="email" viewBox="0 0 14 14"><path d="M7 9L5.268 7.484.316 11.73c.18.166.423.27.69.27h11.987c.267 0 .51-.104.688-.27L8.733 7.483 7 9z"/><path d="M13.684 2.27a1.01 1.01 0 0 0-.69-.27H1.006c-.267 0-.51.104-.69.273L7 8l6.684-5.73zM0 2.878v8.308L4.833 7.08m4.334 0L14 11.185v-8.31"/></symbol><symbol id="facebook" viewBox="0 0 96.124 96.123"><path d="M72.09.02L59.623 0C45.62 0 36.57 9.285 36.57 23.656v10.907H24.037a1.96 1.96 0 0 0-1.96 1.96v15.804a1.96 1.96 0 0 0 1.96 1.96H36.57v39.876a1.96 1.96 0 0 0 1.96 1.96h16.352a1.96 1.96 0 0 0 1.96-1.96V54.287h14.654a1.96 1.96 0 0 0 1.96-1.96l.006-15.803a1.963 1.963 0 0 0-1.961-1.961H56.843v-9.246c0-4.444 1.06-6.7 6.848-6.7l8.397-.003a1.96 1.96 0 0 0 1.96-1.96V1.98c0-1.08-.877-1.958-1.958-1.96z"/></symbol><symbol id="menu" viewBox="0 0 24 24"><path d="M24 3c0-.6-.4-1-1-1H1c-.6 0-1 .4-1 1v2c0 .6.4 1 1 1h22c.6 0 1-.4 1-1V3zm0 8c0-.6-.4-1-1-1H1c-.6 0-1 .4-1 1v2c0 .6.4 1 1 1h22c.6 0 1-.4 1-1v-2zm0 8c0-.6-.4-1-1-1H1c-.6 0-1 .4-1 1v2c0 .6.4 1 1 1h22c.6 0 1-.4 1-1v-2z"/></symbol><symbol id="more" viewBox="0 0 510 510"><path d="M255 0C114.75 0 0 114.75 0 255s114.75 255 255 255 255-114.75 255-255S395.25 0 255 0zm127.5 280.5h-102v102h-51v-102h-102v-51h102v-102h51v102h102v51z"/></symbol><symbol id="twitter" viewBox="0 0 612 612"><path d="M612 116.258a250.746 250.746 0 0 1-72.088 19.772c25.93-15.527 45.777-40.155 55.184-69.41-24.322 14.378-51.17 24.82-79.775 30.48-22.906-24.438-55.49-39.66-91.63-39.66-69.333 0-125.55 56.218-125.55 125.514 0 9.828 1.11 19.427 3.25 28.606-104.325-5.24-196.834-55.223-258.75-131.174-10.822 18.51-16.98 40.078-16.98 63.1 0 43.56 22.182 81.994 55.836 104.48A125.556 125.556 0 0 1 24.63 232.21v1.568c0 60.806 43.29 111.554 100.692 123.104-10.517 2.83-21.607 4.398-33.08 4.398-8.107 0-15.947-.803-23.634-2.333 15.985 49.907 62.336 86.2 117.253 87.194-42.946 33.655-97.098 53.656-155.915 53.656-10.134 0-20.116-.612-29.944-1.72 55.568 35.68 121.537 56.484 192.44 56.484 230.947 0 357.187-191.29 357.187-357.188l-.42-16.253c24.661-17.595 46.001-39.7 62.791-64.863z"/></symbol></svg>