<?xml version="1.0" standalone="no"?>
<!DOCTYPE svg PUBLIC "-//W3C//DTD SVG 20010904//EN"
 "http://www.w3.org/TR/2001/REC-SVG-20010904/DTD/svg10.dtd">
<svg version="1.0" xmlns="http://www.w3.org/2000/svg"
 width="558.000000pt" height="558.000000pt" viewBox="0 0 558.000000 558.000000"
 preserveAspectRatio="xMidYMid meet">
<metadata>
Created by potrace 1.11, written by Peter Selinger 2001-2013
</metadata>
<g transform="translate(0.000000,558.000000) scale(0.100000,-0.100000)"
fill="#000000" stroke="none">
<path d="M2527 4944 c-1 -1 -30 -4 -65 -7 -333 -32 -654 -284 -778 -612 -53
-144 -59 -189 -59 -490 0 -245 2 -289 19 -350 66 -238 238 -451 491 -605 98
-60 169 -90 377 -161 101 -34 235 -82 298 -107 99 -38 148 -61 273 -129 30
-16 127 -111 153 -148 11 -16 31 -55 45 -85 24 -55 24 -58 24 -365 0 -170 -3
-337 -8 -370 -17 -135 -102 -231 -247 -281 -46 -15 -88 -19 -248 -20 -106 -1
-211 2 -235 7 -97 22 -182 80 -231 158 -48 76 -49 87 -51 464 -1 196 -5 361
-9 365 -4 4 -151 7 -327 7 l-319 0 -1 -55 c-2 -158 1 -378 6 -400 3 -14 7 -40
10 -59 33 -246 240 -530 486 -665 168 -92 264 -108 653 -107 170 0 321 2 335
5 14 3 44 8 66 11 165 23 337 116 480 258 120 120 189 226 239 364 48 137 55
210 52 543 -3 264 -7 317 -24 391 -74 311 -245 525 -537 671 -89 45 -185 79
-355 128 -416 119 -570 179 -637 248 -40 40 -86 134 -98 197 -4 22 -10 54 -13
70 -3 17 -6 129 -6 250 0 252 6 285 78 382 50 68 101 106 182 134 52 19 82 21
240 21 204 0 261 -10 335 -63 55 -40 85 -71 121 -129 52 -81 60 -130 61 -373
l2 -222 325 0 325 0 1 130 c2 307 -84 525 -285 725 -156 155 -336 244 -538
266 -53 6 -600 13 -606 8z"/>
</g>
</svg>
