<?xml version="1.0" standalone="no"?>
<!DOCTYPE svg PUBLIC "-//W3C//DTD SVG 20010904//EN"
 "http://www.w3.org/TR/2001/REC-SVG-20010904/DTD/svg10.dtd">
<svg version="1.0" xmlns="http://www.w3.org/2000/svg"
 width="350.000000pt" height="350.000000pt" viewBox="0 0 350.000000 350.000000"
 preserveAspectRatio="xMidYMid meet">
<metadata>
Created by potrace 1.11, written by Peter Selinger 2001-2013
</metadata>
<g transform="translate(0.000000,350.000000) scale(0.100000,-0.100000)"
fill="#000000" stroke="none">
<path d="M1651 3155 c-70 -20 -113 -40 -185 -87 -50 -33 -65 -38 -95 -33 -88
15 -235 -26 -316 -88 -47 -36 -112 -105 -120 -127 -2 -8 -19 -21 -37 -29 -98
-40 -198 -101 -229 -139 -66 -79 -99 -185 -99 -318 l0 -91 -92 -65 c-143 -101
-260 -224 -331 -347 -58 -98 -72 -147 -71 -246 0 -176 69 -300 204 -364 79
-37 193 -37 266 1 73 39 143 108 262 262 29 39 57 72 61 74 4 1 20 -44 36
-100 137 -497 230 -708 392 -890 261 -294 594 -314 866 -51 53 51 151 177 193
249 80 137 180 411 255 702 13 50 27 92 30 92 4 0 14 -11 23 -25 33 -50 152
-191 195 -232 25 -24 73 -57 106 -75 53 -29 69 -32 140 -33 65 0 89 5 125 24
98 51 163 137 194 258 32 124 12 230 -71 369 -78 128 -166 219 -315 326 l-98
70 0 96 c0 216 -69 327 -261 420 -58 28 -102 57 -112 72 -32 51 -124 132 -183
160 -68 33 -188 54 -247 44 -30 -5 -44 -1 -70 18 -37 28 -114 70 -172 93 -58
23 -179 28 -244 10z m171 -267 c44 -13 85 -55 129 -134 17 -30 33 -54 36 -54
2 0 29 11 60 25 127 58 190 58 254 -3 29 -27 47 -58 67 -112 l28 -75 91 -5
c98 -6 125 -18 166 -72 26 -35 33 -114 14 -159 -26 -62 -109 -109 -193 -109
-35 0 -30 20 -59 -232 -68 -590 -234 -1056 -452 -1266 -71 -68 -115 -87 -208
-87 -70 0 -86 4 -129 29 -65 38 -80 51 -135 121 -174 219 -302 610 -400 1220
-12 72 -24 145 -27 162 -4 30 -10 34 -62 49 -72 20 -127 55 -152 97 -28 46
-27 124 3 167 41 61 68 73 166 78 l90 4 18 46 c40 102 69 147 109 169 63 36
99 32 247 -31 l37 -16 44 67 c24 38 55 78 67 89 46 42 119 54 191 32z m-1072
-889 c0 -19 -37 -108 -94 -224 -84 -174 -100 -200 -159 -259 -72 -73 -103 -83
-144 -44 -19 18 -23 32 -23 79 0 105 49 193 168 304 50 47 228 174 245 175 4
0 7 -14 7 -31z m2065 -9 c189 -81 366 -297 353 -431 -6 -62 -29 -89 -76 -89
-30 0 -43 8 -84 53 -62 66 -107 133 -157 233 -34 71 -91 222 -91 245 0 12 2
12 55 -11z"/>
</g>
</svg>
