<?xml version="1.0" standalone="no"?>
<!DOCTYPE svg PUBLIC "-//W3C//DTD SVG 20010904//EN"
 "http://www.w3.org/TR/2001/REC-SVG-20010904/DTD/svg10.dtd">
<svg version="1.0" xmlns="http://www.w3.org/2000/svg"
 width="558.000000pt" height="558.000000pt" viewBox="0 0 558.000000 558.000000"
 preserveAspectRatio="xMidYMid meet">
<metadata>
Created by potrace 1.11, written by Peter Selinger 2001-2013
</metadata>
<g transform="translate(0.000000,558.000000) scale(0.100000,-0.100000)"
fill="#000000" stroke="none">
<path d="M209 4658 c-43 -26 -58 -64 -54 -134 3 -32 6 -68 9 -80 2 -12 7 -45
11 -75 3 -30 10 -83 15 -119 13 -90 12 -98 -9 -105 -50 -15 -83 -68 -77 -120
7 -54 30 -82 86 -102 37 -13 50 -23 51 -38 0 -11 2 -27 3 -35 2 -8 6 -40 10
-70 4 -30 9 -71 12 -91 5 -31 2 -38 -23 -54 -71 -47 -91 -102 -58 -165 15 -29
61 -60 88 -60 30 0 34 -14 52 -160 4 -25 8 -59 10 -76 4 -25 0 -33 -21 -45
-108 -57 -93 -202 23 -225 17 -3 34 -11 36 -18 3 -7 11 -62 18 -123 l12 -112
-46 -45 c-27 -26 -47 -55 -48 -68 -4 -69 13 -97 81 -134 53 -29 55 -33 65
-109 3 -27 8 -61 10 -75 2 -14 6 -47 10 -75 31 -251 35 -256 255 -256 77 0
140 -3 140 -5 0 -25 47 -210 66 -260 158 -420 559 -709 996 -716 82 -2 116 11
140 54 16 28 23 555 8 594 -19 49 -52 69 -125 78 -105 12 -186 49 -251 113
-99 100 -110 158 -109 598 l0 340 398 1 c218 1 399 -1 401 -5 2 -3 16 -74 31
-156 32 -175 45 -208 90 -229 45 -22 498 -24 549 -2 45 19 60 55 91 231 15 83
29 152 32 155 2 3 182 5 399 5 l395 0 -3 -390 -3 -390 -27 -57 c-45 -97 -156
-185 -255 -203 -150 -26 -175 -38 -193 -88 -7 -20 -10 -127 -10 -296 1 -286 4
-304 57 -338 33 -22 173 -20 271 3 37 8 77 18 90 20 44 9 157 55 232 95 275
148 456 388 541 719 16 63 35 117 41 121 6 4 70 8 141 8 139 2 168 9 198 51
19 26 21 35 39 170 6 47 13 96 15 110 2 14 6 45 10 70 12 97 13 98 63 112 105
30 115 167 15 217 -24 13 -31 22 -28 41 2 14 8 63 15 110 7 47 13 94 14 105 2
13 14 22 37 28 61 14 91 46 96 104 6 60 -10 91 -62 119 -29 15 -35 23 -31 44
3 14 10 68 17 120 12 104 18 116 57 125 15 3 41 16 57 29 27 22 30 30 30 81 0
51 -3 59 -31 83 -17 15 -38 32 -48 37 -15 9 -16 18 -7 80 18 120 19 129 20
155 1 21 9 28 51 43 56 20 81 50 87 103 5 45 -26 97 -67 114 -33 14 -34 17
-20 110 5 36 12 88 15 115 3 28 8 61 10 75 31 180 0 232 -138 233 -394 2 -793
-142 -1020 -366 -141 -141 -239 -344 -261 -542 -12 -111 -17 -150 -21 -153 -2
-2 -18 18 -36 45 -62 89 -248 266 -355 336 -146 96 -244 139 -489 214 l-60 18
-40 91 c-22 50 -45 104 -52 120 -62 150 -84 174 -154 174 -67 0 -91 -31 -163
-201 -37 -86 -76 -165 -89 -177 -12 -11 -50 -28 -84 -36 -94 -25 -230 -74
-304 -111 -171 -87 -364 -245 -481 -396 -33 -44 -63 -77 -67 -74 -3 3 -6 27
-7 53 -2 72 -14 148 -35 232 -109 425 -540 722 -1114 765 -161 13 -206 11
-236 -7z m336 -244 c77 -10 247 -56 315 -85 153 -65 278 -158 367 -274 35 -46
98 -176 107 -220 4 -16 9 -41 13 -55 3 -14 7 -410 8 -881 3 -980 3 -993 50
-1124 53 -146 180 -271 338 -331 110 -42 107 -38 107 -176 0 -65 -4 -118 -8
-118 -30 0 -173 45 -236 74 -134 62 -263 170 -344 287 -65 96 -124 234 -138
324 -3 22 -7 42 -9 45 -2 3 -6 39 -10 80 -13 147 -31 160 -228 164 -81 1 -151
7 -156 12 -5 5 -14 52 -20 104 -7 52 -14 109 -17 125 l-4 30 102 1 c76 1 112
5 136 18 35 18 63 68 57 102 -2 10 -4 27 -4 36 -1 21 -37 56 -69 69 -13 5 -71
10 -129 10 -115 2 -133 10 -133 60 0 16 -1 32 -2 37 -12 48 -24 159 -18 165 4
5 68 10 141 11 84 1 142 7 157 14 48 27 72 104 46 154 -29 56 -53 63 -222 64
-84 1 -156 4 -159 7 -3 3 -7 23 -10 44 -2 21 -10 78 -17 126 -7 48 -10 89 -7
91 3 2 78 4 167 4 88 1 172 5 186 11 63 24 91 95 62 156 -29 62 -55 68 -264
70 l-184 1 -8 34 c-3 19 -10 62 -13 95 -4 33 -10 78 -14 100 l-7 40 205 1
c177 0 211 3 239 18 78 41 76 163 -3 201 -27 12 -75 15 -248 15 -119 0 -218 4
-221 8 -3 5 -8 31 -11 58 -3 27 -8 60 -10 74 -3 14 -7 47 -11 74 -3 28 -8 54
-11 59 -6 10 10 9 142 -9z m4621 -43 c-4 -32 -8 -67 -10 -78 -2 -10 -7 -46
-11 -80 l-7 -63 -220 0 c-246 0 -273 -6 -300 -63 -16 -34 -15 -85 2 -118 25
-45 62 -53 278 -53 l204 -1 -6 -60 c-3 -33 -8 -71 -10 -85 -3 -14 -7 -45 -10
-69 -3 -24 -8 -47 -11 -50 -4 -3 -88 -6 -188 -6 -206 -1 -232 -8 -261 -69 -23
-49 -13 -94 29 -133 38 -37 27 -35 253 -34 127 0 135 -2 134 -29 0 -3 -2 -23
-5 -45 -3 -22 -9 -65 -13 -95 -4 -30 -8 -62 -10 -70 -1 -8 -3 -19 -3 -25 -1
-6 -54 -9 -142 -8 -87 1 -156 -3 -178 -10 -93 -31 -103 -161 -16 -210 11 -6
75 -12 145 -13 69 -2 133 -3 142 -3 18 -1 18 -8 2 -101 -2 -14 -6 -45 -9 -70
-3 -25 -7 -54 -10 -65 -2 -11 -4 -23 -4 -27 -1 -4 -50 -7 -109 -7 -142 0 -184
-15 -207 -75 -14 -35 -14 -47 -3 -81 20 -60 59 -78 177 -81 53 -1 99 -2 104
-3 4 -1 5 -13 2 -28 -2 -16 -7 -48 -9 -73 -11 -100 -19 -136 -32 -150 -11 -11
-44 -15 -144 -17 -72 -1 -145 -6 -163 -12 -46 -16 -65 -54 -72 -147 -7 -86
-35 -218 -58 -274 -9 -19 -14 -37 -14 -40 1 -3 -8 -19 -21 -37 -12 -17 -22
-34 -22 -37 0 -14 -83 -124 -132 -174 -106 -109 -250 -192 -406 -233 -45 -12
-84 -20 -86 -18 -6 5 -9 91 -7 180 l1 66 88 37 c173 72 281 171 347 319 55
125 54 112 55 1047 0 476 3 883 6 905 17 138 70 275 141 370 83 109 241 214
397 265 100 33 320 86 368 89 l41 2 -7 -60z m-2345 -251 c12 -33 33 -72 48
-86 34 -34 60 -44 151 -60 72 -12 237 -67 310 -104 272 -138 491 -393 590
-688 32 -97 38 -122 46 -202 l6 -55 -439 0 c-241 1 -453 -2 -471 -6 -61 -13
-89 -55 -107 -164 -6 -39 -24 -139 -33 -190 -7 -36 -11 -40 -43 -46 -20 -3
-69 -4 -109 -3 -88 3 -106 16 -120 94 -6 30 -12 64 -14 75 -2 11 -7 40 -11 65
-13 88 -33 135 -68 155 -30 18 -56 19 -492 20 l-460 0 3 35 c6 63 41 199 72
278 104 269 319 507 575 634 69 35 203 84 254 93 84 15 129 25 151 33 41 16
75 57 101 122 13 33 27 60 31 60 4 0 17 -27 29 -60z"/>
</g>
</svg>
