<svg xmlns="http://www.w3.org/2000/svg" viewBox="0 0 558 558"><path d="M425.3 38H128.9C77.5 38 36 78.8 36 130.3v296.3c0 51.5 41.5 92.3 92.9 92.3h296.3c51.5 0 96.7-40.9 96.7-92.3V130.3C522 78.8 476.8 38 425.3 38zM464 91v83.4l-82.2.3-.6-82.7 82.8-1zM208.2 228.9c15.4-21.5 40.6-35.4 68.9-35.4 28.4 0 53.5 14 69 35.4 10 14 16 31.1 16 49.5 0 46.9-38.2 85-85 85s-85-38.1-85-85c.1-18.5 6-35.6 16.1-49.5zM474 426.7c0 25.6-23.2 44.3-48.7 44.3H128.9c-25.6 0-44.9-18.8-44.9-44.3V228h70.7c-6.2 16-9.7 32.5-9.7 50 0 72.8 59.2 132.3 132 132.3 72.9 0 132.1-59.6 132.1-132.4 0-17.5-3.6-33.9-9.8-49.9H474v198.7z"/></svg>