<svg xmlns="http://www.w3.org/2000/svg" width="512" height="512" viewBox="0 0 512 512">
    <path fill="#ffffff" d="M345.703 126.605c-21.036-13.098-40.882-18.258-60.73-31.356-12.303-8.336-29.37-28.182-43.66-45.25-2.778 27.387-11.113 38.5-20.64 46.44-20.242 15.875-32.943 20.64-50.407 30.165-14.686 7.54-94.466 55.17-94.466 157.575C75.8 386.586 161.93 462 257.588 462S436.2 392.54 436.2 287.356c0-105.183-77.795-152.813-90.497-160.75zm2.293 298.04c-1.984 1.985-20.242 14.687-41.676 16.67s-50.41 3.176-67.873-12.7c-2.778-2.778-1.984-6.748 0-8.336s3.572-2.78 5.954-2.78c2.382 0 1.985 0 3.176.795 7.938 6.35 19.846 11.51 45.25 11.51 25.4 0 43.263-7.144 51.2-13.097 3.573-2.78 5.16-.397 5.558 1.19.398 1.588 1.19 3.97-1.588 6.747zm-69.46-36.12c4.366-3.968 11.51-10.32 18.258-13.098 6.748-2.778 10.32-2.38 16.67-2.38s13.1.395 17.862 3.57c4.763 3.176 7.54 10.32 9.13 14.29 1.587 3.97 0 6.35-3.177 7.938-2.78 1.587-3.176.793-5.954-4.366-2.778-5.16-5.16-10.32-19.053-10.32-13.892 0-18.258 4.762-25.005 10.32-6.748 5.556-9.13 7.54-11.51 4.365-2.382-3.174-1.588-6.35 2.778-10.32zm105.183 3.177c-14.29-1.19-42.868-45.646-61.126-46.44-23.02-.793-73.033 48.027-112.328 48.027-23.815 0-30.96-3.573-38.898-8.732-11.907-8.336-17.86-21.037-17.464-38.5.397-30.96 29.372-59.936 65.888-60.333 46.44-.396 78.59 46.043 102.008 45.646 19.846-.395 57.95-39.294 76.605-39.294 19.846 0 25.402 20.64 25.402 32.944s-3.97 34.532-13.495 48.424c-9.526 13.892-15.48 19.05-26.593 18.258z"/>
</svg>
