<?xml version="1.0" encoding="utf-8"?>
<!-- Generator: Adobe Illustrator 21.1.0, SVG Export Plug-In . SVG Version: 6.00 Build 0)  -->
<svg version="1.1" id="Layer_1" xmlns="http://www.w3.org/2000/svg" xmlns:xlink="http://www.w3.org/1999/xlink" x="0px" y="0px"
	 viewBox="0 0 537.4 537" style="enable-background:new 0 0 537.4 537;" xml:space="preserve">
<path d="M229.4,278.6c-26.8,0-53.1,0-80.4,0c0,2.2,0,4.2,0,6.3c0,19.5,0,39.1,0,58.6c0,23.8,13.2,38.4,36.8,40.9
	c8.9,0.9,12.4,4.7,12.4,13.7c0.1,15,0.1,30.1,0,45.1c0,9.7-4.3,13.8-14.1,13.6c-52.1-1-97.1-39.4-105.8-90.7
	c-0.4-2.3-0.9-4.5-1.5-7.5c-7.2,0-14.4,0-21.6,0c-11.7,0-15.1-3.1-16.6-14.9c-1.5-11.8-3.1-23.6-4.5-33.6c-4.7-2.9-9-4.5-11.5-7.4
	c-4.5-5.2-2-13.2,4.3-17c1.5-0.9,3.4-2.9,3.3-4.3c-0.7-7.9-2-15.8-3.1-23.6c-9-2-12.6-4.9-13.3-10.7c-0.7-6.1,1.5-9.5,9.9-14
	c-1-7.9-2-16-3.2-24.1c-0.1-0.9-1.6-2.2-2.6-2.4c-6-1.1-10.1-4.1-11-10.4c-0.8-5.9,1.8-9.4,10-13.8c-1.1-8.5-2.3-17.2-3.4-26
	c-7-1.1-12.9-3.6-13.5-11.5c-0.5-6.9,3.8-10.6,10.2-12.7c-1.7-12.8-3.4-25.3-5.1-37.8c-1-7.8,3.6-14.1,11.1-14.1
	c34.5,0.1,67.2,6.9,95.5,28c23.9,17.8,35.7,42.2,37.2,71.8c0.1,2.1,0.2,4.3,0.4,6.4c0,0.1,0.3,0.2,0.9,0.5c3-3.8,6-7.8,9.2-11.6
	c21.2-25.2,48.1-41.2,80.2-48.4c2.3-0.5,5.1-2.8,6.1-5c4.2-8.8,7.9-17.8,11.6-26.8c2.2-5.2,5.7-8.5,11.4-8.5c5.8,0,9.3,3.4,11.4,8.5
	c3.8,9.2,7.7,18.4,11.8,27.4c0.8,1.8,2.9,3.9,4.7,4.3c37.4,8,67.1,27.7,89.2,58.8c0.3,0.5,0.6,0.9,1.7,2.5c0.7-7.4,1-13.5,2-19.5
	c6.1-37.4,28.8-61.3,62.8-75.6c21.3-9,43.8-12.6,66.8-12.8c9.1-0.1,13.8,4.9,12.9,14.1c-1.1,10.7-2.8,21.3-4.2,31.9
	c-0.3,1.9-0.4,3.8-0.7,6c6.4,2.3,10.7,6.1,10,13.3c-0.6,6.1-4,8.9-13.3,10.9c-1.2,8.6-2.4,17.4-3.7,26.5c6.6,2.1,10.8,6.1,10.2,13.2
	c-0.4,5.9-4.5,9.1-13.4,11.2c-1.2,8.5-2.4,17.2-3.6,26.2c6.5,2.4,11.2,6.4,10.1,13.8c-1,7.1-6.3,9.8-13.3,10.3
	c-1.2,8.8-2.4,17.4-3.6,26.4c1.3,0.6,2.5,1.1,3.6,1.8c4.7,2.6,7.3,6.6,6.5,12.1c-0.8,5.3-4,9-9.5,9.7c-3.3,0.4-4.2,1.8-4.5,4.8
	c-1.4,11.4-3,22.8-4.6,34.2c-1.1,8.4-5,12-13.6,12.1c-6.6,0.1-13.3,0.2-19.9,0c-3.5-0.1-4.6,1.3-5.2,4.6c-8.5,49.8-44.1,85-94,92.8
	c-4.6,0.7-9.3,0.9-14,0.9c-7.5,0-12.4-4.3-12.5-11.8c-0.3-16.2-0.3-32.4,0-48.6c0.1-7.6,4.4-11.2,13-12
	c18.5-1.9,31.3-12.5,35.2-29.2c0.2-0.9,0.5-1.9,0.5-2.9c0-24.4,0-48.8,0-73.6c-26.4,0-52.7,0-79.8,0c-1.5,7.9-3,16-4.5,24.2
	c-0.4,1.9-0.7,3.8-1.1,5.8c-1.6,7.5-5.3,10.6-13,10.7c-13.7,0.1-27.3,0.1-41,0c-8.5,0-12.3-3.3-13.9-11.9
	C232.8,298,231.2,288.6,229.4,278.6z M280.9,296c0.4-1.8,0.8-2.9,1-4c1.4-7.9,2.8-15.7,4.2-23.6c1.8-10.3,5.3-13.3,15.7-13.3
	c26.4,0,52.7,0,79.1,0c2.1,0,4.1,0,6.2,0c-0.9-17.5-7.9-38-19.1-54.3c-19.5-28.5-46.1-46.1-80.4-51.6c-7.6-1.2-12.6-4.4-14.9-11.9
	c-0.9-2.8-2.4-5.5-4.1-9.2c-1.6,3.6-3,6.2-3.8,8.9c-2.4,7.6-7.4,11-15.3,12.2c-27.3,4.1-50.1,16.8-68.7,37
	c-17.7,19.2-27.8,42-30.9,68.8c2.5,0,4.6,0,6.7,0c26.8,0,53.5,0,80.3,0c8.7,0,12.4,3.2,14,11.7c1.6,8.4,2.9,16.9,4.8,25.3
	c0.4,1.6,2.8,3.7,4.3,3.8C266.8,296.2,273.7,296,280.9,296z M493.5,206.8c-1.8-0.1-2.8-0.2-3.7-0.2c-9.2,0-18.4,0.1-27.5-0.1
	c-7.1-0.2-12.2-5.3-12.1-11.7c0-6.5,5-11.3,12.1-11.6c2.3-0.1,4.7,0,7,0c9.1,0,18.2,0,27.4,0c1.3-9.4,2.4-18,3.6-27.3
	c-4.2,0-7.7,0-11.1,0c-9.2,0-18.4,0.2-27.5-0.2c-7.2-0.3-11.9-5.8-11.5-12.2c0.4-6.3,5.2-10.7,12.2-10.9c3.7-0.1,7.4,0,11.1,0
	c9.9,0,19.8,0,30,0c1.3-9.7,2.5-18.6,3.8-28.5c-5.1,0.6-9.7,0.7-13.9,1.8c-11.8,3.1-24.1,5.5-35.2,10.3
	c-31,13.3-46.6,37.3-46.6,71.2c0,52,0,103.9,0,155.9c0,4.5,0.1,9.1-0.8,13.4c-4.8,24.8-19.5,41.1-43.5,48.9c-1.8,0.6-4.6,2-4.6,3.2
	c-0.4,7.9-0.2,15.8-0.2,23.7c1.5,0,2.1,0.1,2.6,0c40.6-6.6,71-41.3,72.3-82.5c0.4-10.9,4.2-14.6,15.2-14.6c6.4,0,12.9,0.1,19.3-0.1
	c1.6-0.1,4.3-1.2,4.5-2.2c1.4-8.2,2.3-16.4,3.4-24.4c-1.3-0.5-1.6-0.7-2-0.7c-4.7-0.1-9.4-0.1-14.1-0.1c-8.2-0.1-13.4-4.5-13.5-11.4
	c-0.1-7,5.4-11.8,13.7-11.9c6.2-0.1,12.4,0,19.1,0c1.2-9.3,2.4-18,3.7-27.3c-8.3,0-15.6,0-23,0c-8.1-0.1-13.4-4.6-13.5-11.5
	c-0.1-7,5.4-11.8,13.7-11.9c8.6-0.1,17.1,0,26,0C491.1,224.6,492.3,216,493.5,206.8z M174.9,432.5c0-7-0.2-13.6,0.1-20.2
	c0.2-4.1-1-5.8-5.3-7.2c-25.3-8.1-40.7-25.5-43.2-52c-1.7-17.8-0.7-35.9-0.8-53.8c-0.1-39.3,0.1-78.5-0.3-117.8
	c-0.1-17.2-5.8-32.7-17.6-45.4c-20.7-22.3-48-28.9-77.8-32.1c1.4,10,2.6,19.1,3.9,28.4c1.9,0.1,3,0.2,4.2,0.2
	c12.5,0,25-0.1,37.5,0.1c6.6,0.1,11.2,4.7,11.5,10.9c0.3,6.3-3.8,11.2-10.3,12.1c-2.7,0.4-5.5,0.3-8.2,0.3c-10.3,0-20.6,0-31.6,0
	c1.3,9.5,2.5,18.3,3.7,27.3c12,0,23.3-0.2,34.6,0.1c8.5,0.2,13.8,7.6,11.1,15.3c-2,5.7-6.5,8-12.3,8c-9.9,0-19.8,0-30.3,0
	c1.2,9.4,2.4,18,3.6,27.2c8.8,0,17.1,0,25.5,0c8.8,0,14,4.3,14.1,11.4c0.2,7.4-5.1,11.9-14.1,12c-7.3,0-14.6,0-22.4,0
	c1.1,8.1,2.3,15.2,2.9,22.4c0.3,3.7,1.5,5.1,5.3,4.9c5.3-0.3,10.5-0.2,15.8,0c7.7,0.3,12.5,5.2,12.4,12c-0.1,6.7-5.2,11.2-12.9,11.3
	c-5.4,0.1-10.8,0-16.7,0c1.3,9.6,2.5,18.4,3.7,26.8c1,0.3,1.4,0.6,1.8,0.6c7.2,0.1,14.4,0.1,21.7,0.1c11.2,0.1,14.6,3.3,15.2,14.4
	C102.2,392.5,133.3,427.3,174.9,432.5z"/>
</svg>
